<svg xmlns="http://www.w3.org/2000/svg" width="1200" height="450" viewBox="0 0 1200 450">
  <defs>
    <linearGradient id="g" x1="0" y1="0" x2="1" y2="1">
      <stop offset="0" stop-color="#5624d0" stop-opacity="0.22"/>
      <stop offset="1" stop-color="#1f8f6b" stop-opacity="0.10"/>
    </linearGradient>
    <radialGradient id="r" cx="35%" cy="35%" r="70%">
      <stop offset="0" stop-color="#5624d0" stop-opacity="0.35"/>
      <stop offset="1" stop-color="#5624d0" stop-opacity="0"/>
    </radialGradient>
    <filter id="blur" x="-20%" y="-20%" width="140%" height="140%">
      <feGaussianBlur stdDeviation="28"/>
    </filter>
  </defs>

  <rect width="1200" height="450" fill="#ffffff"/>
  <rect width="1200" height="450" fill="url(#g)"/>

  <circle cx="280" cy="150" r="140" fill="url(#r)" filter="url(#blur)"/>
  <circle cx="860" cy="330" r="180" fill="#1f8f6b" opacity="0.12" filter="url(#blur)"/>

  <g opacity="0.22">
    <path d="M160 300 C 240 230, 310 370, 400 300 S 560 310, 640 250" fill="none" stroke="#111827" stroke-width="8" stroke-linecap="round"/>
    <path d="M700 180 C 780 110, 860 260, 950 190 S 1100 200, 1160 150" fill="none" stroke="#111827" stroke-width="8" stroke-linecap="round"/>
  </g>

  <g font-family="system-ui, -apple-system, Segoe UI, Roboto, Arial" fill="#111827">
    <text x="70" y="110" font-size="44" font-weight="800" letter-spacing="-0.5">Python</text>
    <text x="70" y="155" font-size="24" font-weight="600" opacity="0.72">Practice-driven</text>
  </g>

  <g transform="translate(930 70)">
    <rect x="0" y="0" rx="18" ry="18" width="200" height="68" fill="#ffffff" opacity="0.86" stroke="#e5e7eb"/>
    <text x="24" y="44" font-family="system-ui, -apple-system, Segoe UI, Roboto, Arial" font-size="22" font-weight="800" fill="#5624d0">Advanced</text>
  </g>
</svg>
